<svg width="28" height="26" viewBox="0 0 28 26" fill="none" xmlns="http://www.w3.org/2000/svg">
<path d="M13.064 0.693314C13.2405 0.33684 13.6039 0.11084 14.0012 0.11084C14.3984 0.11084 14.7625 0.33684 14.9384 0.693314L18.2999 7.50535C18.4519 7.81348 18.7466 8.02724 19.0874 8.07675L26.6048 9.16889C26.9991 9.22597 27.3253 9.50207 27.4482 9.88009C27.5711 10.2581 27.4686 10.674 27.1837 10.9513L21.7446 16.2541C21.4982 16.4941 21.3858 16.8401 21.4435 17.1791L22.7272 24.6668C22.7936 25.0594 22.6335 25.4554 22.3108 25.6896C21.9887 25.9226 21.5629 25.9535 21.2099 25.7694L14.4858 22.2338C14.1818 22.0736 13.8177 22.0736 13.5131 22.2338L6.789 25.7688C6.43719 25.9535 6.01023 25.9232 5.68813 25.6896C5.36602 25.456 5.20525 25.0594 5.27224 24.6668L6.55601 17.1791C6.61426 16.8401 6.50126 16.4941 6.25487 16.2541L0.815731 10.9513C0.530901 10.6734 0.428386 10.2581 0.551288 9.88009C0.67419 9.50207 1.00096 9.22597 1.39529 9.16889L8.91387 8.07675C9.25403 8.02724 9.54876 7.81348 9.70079 7.50476L13.064 0.693314Z" fill="url(#paint0_linear)"/>
<defs>
<linearGradient id="paint0_linear" x1="1.00012" y1="13" x2="28.0001" y2="13" gradientUnits="userSpaceOnUse">

<stop offset="1" stop-color="#CED7E0"/>
</linearGradient>
</defs>
</svg>
